<svg xmlns="http://www.w3.org/2000/svg" xmlns:xlink="http://www.w3.org/1999/xlink" width="600" height="500">
  <defs>
    <path id="c" d="M0 0h115v210H0z"/>
    <path id="a" d="M0 138h111c5 0 9 4 9 9v22h84V0H0v138Z"/>
  </defs>
  <g fill="none" fill-rule="evenodd">
    <g transform="translate(367 90)">
      <mask id="b" fill="#fff">
        <use xlink:href="#a"/>
      </mask>
      <use xlink:href="#a" fill="#D8D8D8"/>
      <path fill="#323232" fill-rule="nonzero" stroke="#0B0C0C" stroke-width="6" d="M3 3h198v163H3z" mask="url(#b)"/>
      <path fill="#B1B4B6" fill-rule="nonzero" d="M48.6 33 28.3 21.4c-.4-.2-.8-.4-1.2-.4a2 2 0 0 0-2 2c0 .9.5 1.6 1.3 2l15.8 9-16 9.1a2 2 0 0 0-1.2 2c0 1 .9 1.9 2 1.9.4 0 .9-.2 1.2-.4l20.3-11.7c.5-.3.6-1 .4-1.5 0-.2-.2-.3-.3-.4Zm30.8 24.5c-.5-.4-1.1-.6-1.7-.5H52.2c-.6 0-1.2.1-1.6.5-.8.7-.8 2 0 2.9.5.5 1 .7 1.6.6h25.5c.6 0 1.2-.1 1.7-.5a2 2 0 0 0 0-3Z" mask="url(#b)"/>
    </g>
    <path fill="#FFF" fill-opacity=".3" fill-rule="nonzero" d="M80.2 262.5c0-1.9-1.6-3.5-3.5-3.5a3.5 3.5 0 0 0-3.5 3.5c0 1.9 1.6 3.5 3.5 3.5s3.5-1.6 3.5-3.5Zm0-14c0-1.9-1.6-3.5-3.5-3.5a3.5 3.5 0 0 0-3.5 3.5c0 1.9 1.6 3.5 3.5 3.5s3.5-1.6 3.5-3.5Zm0-14c0-1.9-1.6-3.5-3.5-3.5a3.5 3.5 0 0 0-3.5 3.5c0 1.9 1.6 3.5 3.5 3.5s3.5-1.6 3.5-3.5Zm0-14c0-1.9-1.6-3.5-3.5-3.5a3.5 3.5 0 0 0-3.5 3.5c0 1.9 1.6 3.5 3.5 3.5s3.5-1.6 3.5-3.5Zm0-14c0-1.9-1.6-3.5-3.5-3.5a3.5 3.5 0 0 0-3.5 3.5c0 1.9 1.6 3.5 3.5 3.5s3.5-1.6 3.5-3.5Zm0-14c0-1.9-1.6-3.5-3.5-3.5a3.5 3.5 0 0 0-3.5 3.5c0 1.9 1.6 3.5 3.5 3.5s3.5-1.6 3.5-3.5Zm0-168c0-1.9-1.6-3.5-3.5-3.5a3.5 3.5 0 0 0-3.5 3.5c0 1.9 1.6 3.5 3.5 3.5s3.5-1.6 3.5-3.5Zm0-14c0-1.9-1.6-3.5-3.5-3.5a3.5 3.5 0 0 0-3.5 3.5c0 1.9 1.6 3.5 3.5 3.5s3.5-1.6 3.5-3.5Zm12.8 252c0-1.9-1.6-3.5-3.5-3.5a3.5 3.5 0 0 0-3.5 3.5c0 1.9 1.6 3.5 3.5 3.5 2 0 3.5-1.6 3.5-3.5Zm14 0c0-1.9-1.6-3.5-3.5-3.5a3.5 3.5 0 0 0-3.5 3.5c0 1.9 1.6 3.5 3.5 3.5 2 0 3.5-1.6 3.5-3.5Zm14 0c0-1.9-1.6-3.5-3.5-3.5a3.5 3.5 0 0 0-3.5 3.5c0 1.9 1.6 3.5 3.5 3.5 2 0 3.5-1.6 3.5-3.5Zm14 0c0-1.9-1.6-3.5-3.5-3.5a3.5 3.5 0 0 0-3.5 3.5c0 1.9 1.6 3.5 3.5 3.5 2 0 3.5-1.6 3.5-3.5Zm433 101c0-1.9 1.6-3.5 3.5-3.5s3.5 1.6 3.5 3.5-1.6 3.5-3.5 3.5a3.5 3.5 0 0 1-3.5-3.5Zm14 0c0-1.9 1.6-3.5 3.5-3.5s3.5 1.6 3.5 3.5-1.6 3.5-3.5 3.5a3.5 3.5 0 0 1-3.5-3.5Zm14 0c0-1.9 1.6-3.5 3.5-3.5s3.5 1.6 3.5 3.5-1.6 3.5-3.5 3.5a3.5 3.5 0 0 1-3.5-3.5Zm-42 0c0-1.9 1.6-3.5 3.5-3.5s3.5 1.6 3.5 3.5-1.6 3.5-3.5 3.5a3.5 3.5 0 0 1-3.5-3.5Zm-14 0c0-1.9 1.6-3.5 3.5-3.5s3.5 1.6 3.5 3.5-1.6 3.5-3.5 3.5a3.5 3.5 0 0 1-3.5-3.5Zm-14 0c0-1.9 1.6-3.5 3.5-3.5s3.5 1.6 3.5 3.5-1.6 3.5-3.5 3.5a3.5 3.5 0 0 1-3.5-3.5Zm-14 0c0-1.9 1.6-3.5 3.5-3.5s3.5 1.6 3.5 3.5-1.6 3.5-3.5 3.5a3.5 3.5 0 0 1-3.5-3.5Zm-14 0c0-1.9 1.6-3.5 3.5-3.5s3.5 1.6 3.5 3.5-1.6 3.5-3.5 3.5a3.5 3.5 0 0 1-3.5-3.5Zm-14 0c0-1.9 1.6-3.5 3.5-3.5s3.5 1.6 3.5 3.5-1.6 3.5-3.5 3.5a3.5 3.5 0 0 1-3.5-3.5Z"/>
    <g transform="translate(19 240)">
      <mask id="d" fill="#fff">
        <use xlink:href="#c"/>
      </mask>
      <path fill="#EDEDED" stroke="#A5A9AB" stroke-width="2" d="M201 4 1 204V4h200Zm-75 29.5H31v95l95-95Z" mask="url(#d)" transform="matrix(1 0 0 -1 0 208)"/>
      <path fill="#505A5F" d="M1 193h2v11H1v-11Zm4 7h1v4H5v-4Zm13 0h1v4h-1v-4Zm13 0h1v4h-1v-4Zm13 0h1v4h-1v-4Zm13 0h1v4h-1v-4Zm13 0h1v4h-1v-4Zm13 0h1v4h-1v-4Zm13 0h1v4h-1v-4Zm13 0h1v4h-1v-4ZM8 198h1v6H8v-6Zm13 0h1v6h-1v-6Zm13 0h1v6h-1v-6Zm13 0h1v6h-1v-6Zm13 0h1v6h-1v-6Zm13 0h1v6h-1v-6Zm13 0h1v6h-1v-6Zm13 0h1v6h-1v-6Zm13 0h1v6h-1v-6Zm-101 2h1v4h-1v-4Zm13 0h1v4h-1v-4Zm13 0h1v4h-1v-4Zm13 0h1v4h-1v-4Zm13 0h1v4h-1v-4Zm13 0h1v4h-1v-4Zm13 0h1v4h-1v-4Zm13 0h1v4h-1v-4Zm13 0h1v4h-1v-4Zm-101-7h2v11h-2v-11Zm13 0h2v11h-2v-11Zm13 0h2v11h-2v-11Zm13 0h2v11h-2v-11Zm13 0h2v11h-2v-11Zm13 0h2v11h-2v-11Zm13 0h2v11h-2v-11Zm13 0h2v11h-2v-11Zm13 0h2v11h-2v-11Z" mask="url(#d)"/>
    </g>
    <path fill="#FFF" d="M139 235.5h340v230H139z" opacity=".3"/>
    <path fill="#1E1E1E" fill-rule="nonzero" d="M477.4 228c5.6 0 9.1 3.8 9.1 9.8V476h-355V237.8c0-6 3.5-9.8 9-9.8h337ZM281 235.5H143a4 4 0 0 0-4 4v226h340v-226a4 4 0 0 0-4-4H337v6a3 3 0 0 1-3 3h-50a3 3 0 0 1-3-3v-6Z"/>
    <path fill="#EDEDED" fill-rule="nonzero" d="M487 475.5h-1V237c0-5-3.5-8.5-8.5-8.5h-337c-5 0-8.5 3.5-8.5 8.5v238.5h-1V237c0-5.5 4-9.5 9.5-9.5h337c5.5 0 9.5 4 9.5 9.5v238.5Z"/>
    <path fill="#808283" fill-rule="nonzero" d="M270 475.5h78v7h-78z"/>
    <path fill="#B1B4B6" fill-rule="nonzero" d="M341 481.4h-64c-3.8 0-6-1.9-6.3-5.4H81v10a8 8 0 0 0 8 8h440a8 8 0 0 0 8-8l-.1-10H347.3c-.3 3.7-2.4 5.4-6.3 5.4Z"/>
    <path fill="#A5A9AB" fill-rule="nonzero" d="M81 486v.1a8 8 0 0 0 8 7.9h440a7.9 7.9 0 0 0 7.9-8 8.5 8.5 0 0 1-5.5 2H87c-2.1 0-4.2-.7-5.9-2Z"/>
    <path stroke="#EDEDED" d="M537 476H347.4c-.2 4.1-2.3 6-6.3 6H277c-3.8 0-6-2.1-6.3-6H81"/>
    <path fill="#000" fill-opacity=".5" fill-rule="nonzero" d="M106 496h406l20 4H86z"/>
    <path fill="#505A5F" fill-rule="nonzero" d="m108.4 494 5.7 3h38.6l5.7-3zm352 0 5.7 3h38.6l5.7-3z"/>
    <path fill="#FFF" fill-rule="nonzero" stroke="#0B0C0C" stroke-width="2" d="M52 34h196v148H52z"/>
    <path fill="#0B0C0C" d="M52 34h197v28H52z"/>
    <path fill="#B1B4B6" fill-rule="nonzero" d="M63 72h82v9H63v-9Zm0 21h113v9H63v-9Z"/>
    <path fill="#FD0" fill-rule="nonzero" d="M63 114h96v15H63z"/>
    <path fill="#0B0C0C" fill-rule="nonzero" d="M63 129h96v2H63z"/>
    <g fill-rule="nonzero">
      <path fill="#B1B4B6" d="M284 149h26v9h-26v-9Zm0-56h26v9h-26v-9Z"/>
      <g transform="translate(224 129)">
        <circle cx="24" cy="24" r="20" fill="#FFF"/>
        <path fill="#0B0C0C" d="M24 8a16 16 0 0 1 16 16 16 16 0 0 1-16 16A16 16 0 0 1 8 24 16 16 0 0 1 24 8m0-4C13 4 4 13 4 24s9 20 20 20 20-9 20-20S35 4 24 4Z"/>
        <path fill="#FD0" d="M24 4c11 0 20 9 20 20s-9 20-20 20S4 35 4 24 13 4 24 4m0-4a24 24 0 1 0 0 48 24 24 0 1 0 0-48Z"/>
        <circle cx="24" cy="24" r="10" fill="#0B0C0C"/>
      </g>
      <path fill="#FFF" d="M229 79h36v36h-36z"/>
      <path fill="#0B0C0C" d="M263 81v32h-32V81h32m4-4h-40v40h40V77Z"/>
      <path fill="#0B0C0C" d="m260 90.5-3.5-3.5-12.9 12.8-5.1-5-3.5 3.6 8.6 8.6L260 90.5"/>
      <path fill="#FD0" d="M267 77v40h-40V77h40m3-3h-46v46h46V74Z"/>
    </g>
    <g fill-rule="nonzero">
      <path fill="#FFF" stroke="#0B0C0C" stroke-width="2" d="M180 280h258v148H180z"/>
      <path fill="#0B0C0C" d="M180 280h258v28H180z"/>
      <path fill="#FFF" d="M198.6 297.4c.8 1 2 1.5 3.3 1.5 1.4 0 2.6-.7 2.6-2.1 0-.7-.4-1.4-1.1-1.6-1.1-.5-3-.6-4.2-1.3a2.7 2.7 0 0 1-1.4-2.4c0-1.8 1.5-3.2 3.9-3.2a5 5 0 0 1 3.8 1.6l-1 .8a3.6 3.6 0 0 0-2.8-1.2c-1.4 0-2.5.7-2.5 1.9 0 1.9 2.7 1.7 4.7 2.5 1.2.4 2 1.5 1.9 2.7 0 2.3-2.1 3.4-4.2 3.4-1.6 0-3.1-.6-4.2-1.8l1.2-.8Zm10.4-1.1c0 1.4 1.1 2.6 2.5 2.7h.1c.8 0 1.6-.3 2.2-.8l.7 1c-.8.7-1.9 1-2.9 1-2.4 0-3.9-1.8-3.9-4.3s1.5-4.3 3.7-4.3 3.5 1.8 3.5 4.3v.4H209Zm0-1.1h4.4c0-1.3-.8-2.4-2.1-2.4a2.3 2.3 0 0 0-2.3 2.4Zm12.1-2.2h-.2c-1.4 0-2.6.6-2.6 2.8v4.2H217v-8.2h1.4v1.3c.5-.9 1.4-1.5 2.5-1.5h.4v1.4h-.2Zm3.5 7-2.6-8.2h1.5l2 7 2-7h1.5l-2.6 8.2h-1.8Zm6.9-11.5c.6 0 1 .4 1 1s-.4 1-1 1-1-.4-1-1 .5-1 1-1Zm.7 11.5h-1.4v-8.2h1.4v8.2Zm3.5-4.1c0 1.6.8 3 2.4 3 .9 0 1.8-.6 2.1-1.4l1.1.6c-.6 1.2-1.9 2-3.2 1.9-2.3 0-3.8-1.8-3.8-4.3s1.5-4.3 3.8-4.3c1.4 0 2.6.7 3.2 1.9l-1.1.6a2.4 2.4 0 0 0-2.1-1.4c-1.6 0-2.4 1.4-2.4 3v.4Zm8.5.4c0 1.4 1.1 2.6 2.5 2.7h.1c.8 0 1.6-.3 2.2-.8l.7 1c-.8.7-1.9 1-2.9 1-2.4 0-3.9-1.8-3.9-4.3s1.5-4.3 3.8-4.3 3.5 1.8 3.5 4.3v.4h-6Zm0-1.1h4.4c0-1.3-.8-2.4-2.1-2.4a2.4 2.4 0 0 0-2.3 2.4Z"/>
      <path fill="#B1B4B6" d="M197 322h82v9h-82v-9Zm0 18h171v9H197v-9Zm0 18h171v9H197v-9Zm0 18h113v9H197v-9Z"/>
      <path fill="#00703C" d="M197 397h96v15h-96z"/>
      <path fill="#0B0C0C" d="M197 412h96v2h-96z"/>
    </g>
  </g>
</svg>
